<?xml version="1.0" encoding="iso-8859-1"?>
<!-- Generator: Adobe Illustrator 14.0.0, SVG Export Plug-In . SVG Version: 6.00 Build 43363)  -->
<!DOCTYPE svg PUBLIC "-//W3C//DTD SVG 1.1//EN" "http://www.w3.org/Graphics/SVG/1.1/DTD/svg11.dtd">
<svg version="1.1" id="meegotouch-keyboard-layer" xmlns="http://www.w3.org/2000/svg" xmlns:xlink="http://www.w3.org/1999/xlink"
	 x="0px" y="0px" width="500px" height="480px" viewBox="0 0 500 480" style="enable-background:new 0 0 500 480;"
	 xml:space="preserve">
<g id="meegotouch-keyboard">
	<g id="virtualmeegotouch-keyboardThemeTemplateHelper">
		<g id="vkbhelperBackground">
			<g>
				<path style="fill:#E6E6B3;" d="M16,479c-8.271,0-15-6.729-15-15V16C1,7.729,7.729,1,16,1h468c8.271,0,15,6.729,15,15v448
					c0,8.271-6.729,15-15,15H16z"/>
				<g>
					<path d="M484,2c7.72,0,14,6.28,14,14v448c0,7.72-6.28,14-14,14H16c-7.72,0-14-6.28-14-14V16C2,8.28,8.28,2,16,2H484 M484,0H16
						C7.2,0,0,7.2,0,16v448c0,8.8,7.2,16,16,16h468c8.8,0,16-7.2,16-16V16C500,7.2,492.8,0,484,0L484,0z"/>
				</g>
			</g>
		</g>
		<g>
			<path d="M145.746,43.409l-5.634-20.794h3.138l4.352,17.307l4.561-17.307h2.72l-5.83,20.794H145.746z"/>
			<path d="M160.418,43.409h-2.971V29.128h-1.855v-1.938h4.826V43.409z M158.939,21.499c0.455,0,0.848,0.167,1.178,0.502
				s0.496,0.729,0.496,1.186c0,0.465-0.164,0.862-0.488,1.192c-0.326,0.33-0.721,0.495-1.186,0.495
				c-0.475,0-0.875-0.165-1.199-0.495c-0.326-0.33-0.488-0.728-0.488-1.192c0-0.474,0.162-0.874,0.488-1.2
				C158.064,21.662,158.465,21.499,158.939,21.499z"/>
			<path d="M166.303,27.189l0.684,2.705c0.902-1.906,2.473-2.859,4.714-2.859c0.298,0,0.517,0.015,0.655,0.043v2.705
				c-0.232-0.019-0.58-0.027-1.045-0.027c-1.274,0-2.209,0.305-2.804,0.913s-0.893,1.56-0.893,2.853v9.888h-2.971v-16.22H166.303z"
				/>
			<path d="M178.98,43.633c-1.265,0-2.189-0.295-2.775-0.887c-0.586-0.59-0.879-1.531-0.879-2.824V29.128h-2.134v-1.116l4.337-4.421
				h0.768v3.599h3.947v1.938h-3.947v10.307c0,0.884,0.145,1.467,0.433,1.75c0.288,0.284,0.726,0.425,1.312,0.425
				c0.604,0,1.422-0.134,2.454-0.404v1.926C181.249,43.465,180.077,43.633,178.98,43.633z"/>
			<path d="M189.65,43.633c-1.655,0-2.895-0.431-3.717-1.291c-0.823-0.859-1.234-2.149-1.234-3.869V27.189h2.971v10.767
				c0,1.218,0.213,2.132,0.641,2.741c0.428,0.608,1.074,0.912,1.939,0.912c1.078,0,1.912-0.408,2.503-1.227s0.886-1.883,0.886-3.193
				v-10h2.971v16.22h-1.646l-0.601-2.399C193.332,42.758,191.761,43.633,189.65,43.633z"/>
			<path d="M209.078,41.066c-1.004,1.711-2.566,2.566-4.687,2.566c-1.479,0-2.629-0.416-3.452-1.248
				c-0.822-0.832-1.234-1.997-1.234-3.494c0-1.543,0.424-2.693,1.27-3.452c0.846-0.757,1.859-1.231,3.041-1.423
				c1.18-0.189,2.617-0.285,4.309-0.285v-1.911c0-1.888-1.009-2.831-3.025-2.831c-1.163,0-2.581,0.246-4.254,0.739v-2.078
				c1.682-0.465,3.281-0.697,4.797-0.697c1.785,0,3.141,0.431,4.066,1.29c0.924,0.859,1.387,2.127,1.387,3.801v11.366h-1.617
				L209.078,41.066z M208.324,35.502h-1.659c-1.33,0-2.327,0.281-2.991,0.844c-0.666,0.562-0.998,1.4-0.998,2.517
				c0,0.911,0.203,1.593,0.607,2.044s1.011,0.676,1.82,0.676c1.021,0,1.814-0.325,2.377-0.977c0.562-0.65,0.844-1.533,0.844-2.649
				V35.502z"/>
			<path d="M215.299,43.409V21.332h2.971v22.077H215.299z"/>
			<path d="M235.242,34.246l5.913,9.163h-3.515l-5.578-8.828v8.828h-2.971V21.332h2.971v13.193l5.494-7.336h3.25L235.242,34.246z"/>
			<path d="M253.066,40.927v2.022c-1.461,0.455-2.971,0.684-4.533,0.684c-2.27,0-3.966-0.684-5.091-2.051s-1.688-3.473-1.688-6.318
				c0-2.5,0.544-4.512,1.632-6.031c1.088-1.521,2.641-2.28,4.658-2.28c1.637,0,2.866,0.435,3.689,1.304
				c0.822,0.869,1.35,1.934,1.582,3.193c0.232,1.261,0.35,2.76,0.35,4.498h-8.76c0,1.889,0.336,3.304,1.005,4.247
				c0.669,0.944,1.673,1.415,3.013,1.415C250.058,41.609,251.438,41.383,253.066,40.927z M244.906,34.121h5.844
				c0-1.962-0.232-3.348-0.697-4.156s-1.134-1.214-2.008-1.214c-0.977,0-1.723,0.419-2.238,1.255
				C245.291,30.844,244.99,32.215,244.906,34.121z"/>
			<path d="M259.578,42.81l-4.435-15.62h3.054l3.543,13.444l3.695-13.444h2.678l-5.076,17.195c-0.391,1.293-0.939,2.244-1.646,2.854
				c-0.706,0.607-1.627,0.912-2.761,0.912c-0.781,0-1.646-0.098-2.595-0.292v-2.05c0.855,0.167,1.636,0.25,2.343,0.25
				c0.642,0,1.164-0.216,1.569-0.648c0.404-0.432,0.792-1.299,1.165-2.601H259.578z"/>
			<path d="M273.303,21.332v7.363c1.06-1.162,2.375-1.743,3.947-1.743c1.812,0,3.174,0.669,4.086,2.009
				c0.911,1.338,1.367,3.347,1.367,6.024s-0.614,4.774-1.842,6.29c-1.227,1.516-2.914,2.273-5.062,2.273
				c-2.111,0-3.933-0.094-5.467-0.279V21.332H273.303z M273.303,35.236v6.15c0.864,0.111,1.637,0.168,2.314,0.168
				c1.367,0,2.376-0.5,3.027-1.5c0.65-0.999,0.977-2.717,0.977-5.152c0-1.972-0.256-3.45-0.768-4.436
				c-0.512-0.986-1.273-1.479-2.287-1.479c-0.986,0-1.716,0.298-2.189,0.893c-0.475,0.596-0.772,1.318-0.893,2.169
				C273.363,32.9,273.303,33.963,273.303,35.236z"/>
			<path d="M291.922,43.633c-2.186,0-3.822-0.717-4.91-2.148s-1.631-3.58-1.631-6.443c0-2.492,0.564-4.463,1.693-5.913
				c1.131-1.45,2.746-2.176,4.848-2.176c2.119,0,3.739,0.716,4.859,2.147c1.121,1.432,1.682,3.432,1.682,5.997
				c0,2.642-0.523,4.724-1.569,6.249C295.848,42.87,294.189,43.633,291.922,43.633z M291.922,41.722
				c1.143,0,2.006-0.519,2.586-1.556c0.582-1.036,0.873-2.772,0.873-5.209c0-1.72-0.299-3.163-0.893-4.33
				c-0.596-1.166-1.451-1.75-2.566-1.75c-1.135,0-1.994,0.525-2.58,1.576s-0.879,2.552-0.879,4.504c0,2.195,0.293,3.871,0.879,5.028
				S290.787,41.722,291.922,41.722z"/>
			<path d="M310.233,41.066c-1.004,1.711-2.566,2.566-4.687,2.566c-1.479,0-2.629-0.416-3.451-1.248
				c-0.823-0.832-1.234-1.997-1.234-3.494c0-1.543,0.423-2.693,1.27-3.452c0.846-0.757,1.859-1.231,3.04-1.423
				c1.181-0.189,2.617-0.285,4.31-0.285v-1.911c0-1.888-1.01-2.831-3.026-2.831c-1.163,0-2.581,0.246-4.254,0.739v-2.078
				c1.683-0.465,3.282-0.697,4.798-0.697c1.785,0,3.141,0.431,4.065,1.29s1.388,2.127,1.388,3.801v11.366h-1.618L310.233,41.066z
				 M309.48,35.502h-1.66c-1.33,0-2.326,0.281-2.991,0.844s-0.997,1.4-0.997,2.517c0,0.911,0.202,1.593,0.606,2.044
				s1.011,0.676,1.82,0.676c1.022,0,1.815-0.325,2.378-0.977c0.562-0.65,0.844-1.533,0.844-2.649V35.502z"/>
			<path d="M318.113,27.189l0.684,2.705c0.901-1.906,2.473-2.859,4.713-2.859c0.299,0,0.517,0.015,0.656,0.043v2.705
				c-0.232-0.019-0.581-0.027-1.046-0.027c-1.274,0-2.208,0.305-2.804,0.913c-0.595,0.608-0.893,1.56-0.893,2.853v9.888h-2.971
				v-16.22H318.113z"/>
			<path d="M336.383,43.409l-0.627-1.994c-0.855,1.478-2.32,2.218-4.394,2.218c-1.925,0-3.373-0.682-4.345-2.043
				c-0.971-1.363-1.457-3.49-1.457-6.381c0-2.428,0.518-4.41,1.555-5.949c1.037-1.538,2.508-2.308,4.414-2.308
				c1.562,0,2.734,0.47,3.516,1.409v-7.029h2.971v22.077H336.383z M335.143,36.018l-0.015-0.921c0-2.417-0.272-4.049-0.815-4.896
				c-0.545-0.846-1.318-1.269-2.322-1.269c-1.115,0-1.953,0.517-2.511,1.548c-0.558,1.032-0.837,2.58-0.837,4.645
				c0,2.166,0.27,3.789,0.809,4.867s1.349,1.617,2.428,1.617c1.051,0,1.856-0.39,2.42-1.171
				C334.861,39.658,335.143,38.184,335.143,36.018z"/>
		</g>
	</g>
	<g id="meegotouch-keyboard-handle-decoration">
		<circle style="fill:#6D6E70;" cx="14" cy="387.999" r="2"/>
		<circle style="fill:#6D6E70;" cx="22.168" cy="387.999" r="2"/>
		<circle style="fill:#6D6E70;" cx="30.338" cy="387.999" r="2"/>
		<circle style="fill:#6D6E70;" cx="38.506" cy="387.999" r="2"/>
		<circle style="fill:#6D6E70;" cx="46.677" cy="387.999" r="2"/>
		<circle style="fill:#6D6E70;" cx="54.846" cy="387.999" r="2"/>
		<circle style="fill:#6D6E70;" cx="63.016" cy="387.999" r="2"/>
		<circle style="fill:#6D6E70;" cx="71.184" cy="387.999" r="2"/>
		<circle style="fill:#6D6E70;" cx="79.355" cy="387.999" r="2"/>
	</g>
	<g id="meegotouch-keyboard-handle-background">
		<rect x="12" y="399.999" style="fill:#F5F5F5;" width="64.004" height="6"/>
		<rect x="12" y="399.999" style="fill:#CCCCCC;" width="64.004" height="1"/>
	</g>
	<g id="meegotouch-keyboard-background">
		<g>
			<path style="fill:#F2F2F2;" d="M10,81v56c0,4.4,3.6,8,8,8h48c4.4,0,8-3.6,8-8V81H10z"/>
		</g>
	</g>
	<g id="meegotouch-candidatelist-background">
		<path style="fill:#CCCCCC;" d="M74,283c0,5.5-4.5,10-10,10H20c-5.5,0-10-4.5-10-10v-44c0-5.5,4.5-10,10-10h44c5.5,0,10,4.5,10,10
			V283z"/>
		<path style="fill:#F5F5F5;" d="M20,291c-4.411,0-8-3.589-8-8v-44c0-4.411,3.589-8,8-8h44c4.411,0,8,3.589,8,8v44
			c0,4.411-3.589,8-8,8H20z"/>
	</g>
	<g id="meegotouch-keyboard-toolbar-background">
		<rect x="10" y="155" style="opacity:0.9;fill:#E6E6E6;" width="64" height="64"/>
	</g>
	<g id="meegotouch-keyboard-key">
		<path style="fill:#B3B3B3;" d="M134,81H98c-10.371,0-14,3.631-14,14v36c0,10.371,3.629,14,14,14h36c10.369,0,14-3.629,14-14V95
			C148,84.631,144.369,81,134,81z"/>
		<linearGradient id="SVGID_1_" gradientUnits="userSpaceOnUse" x1="115.9995" y1="81" x2="115.9995" y2="145">
			<stop  offset="0" style="stop-color:#FFFFFF"/>
			<stop  offset="0.1463" style="stop-color:#FFFFFF;stop-opacity:0.8537"/>
			<stop  offset="1" style="stop-color:#FFFFFF;stop-opacity:0"/>
		</linearGradient>
		<path style="opacity:0.15;fill:url(#SVGID_1_);" d="M134,81H98c-10.371,0-14,3.631-14,14v36c0,10.371,3.629,14,14,14h36
			c10.369,0,14-3.629,14-14V95C148,84.631,144.369,81,134,81z"/>
		<g>
			<path style="fill:#808080;" d="M134,82c9.841,0,13,3.159,13,13v36c0,9.841-3.159,13-13,13H98c-9.841,0-13-3.159-13-13V95
				c0-9.841,3.159-13,13-13H134 M134,81H98c-10.371,0-14,3.631-14,14v36c0,10.371,3.629,14,14,14h36c10.369,0,14-3.629,14-14V95
				C148,84.631,144.369,81,134,81L134,81z"/>
		</g>
	</g>
	<g id="meegotouch-keyboard-key-pressed">
		<path style="fill:#B3B3B3;" d="M134,155H98c-10.372,0-14,3.631-14,14v36c0,10.371,3.628,14,14,14h36c10.372,0,14-3.629,14-14v-36
			C148,158.631,144.372,155,134,155z"/>
		<linearGradient id="SVGID_2_" gradientUnits="userSpaceOnUse" x1="115.9995" y1="155" x2="115.9995" y2="219">
			<stop  offset="0" style="stop-color:#FFFFFF"/>
			<stop  offset="0.1463" style="stop-color:#FFFFFF;stop-opacity:0.8537"/>
			<stop  offset="1" style="stop-color:#FFFFFF;stop-opacity:0"/>
		</linearGradient>
		<path style="opacity:0.15;fill:url(#SVGID_2_);" d="M134,155H98c-10.372,0-14,3.631-14,14v36c0,10.371,3.628,14,14,14h36
			c10.372,0,14-3.629,14-14v-36C148,158.631,144.372,155,134,155z"/>
		<g>
			<path style="fill:#808080;" d="M134,156c9.841,0,13,3.159,13,13v36c0,9.841-3.159,13-13,13H98c-9.841,0-13-3.159-13-13v-36
				c0-9.841,3.159-13,13-13H134 M134,155H98c-10.372,0-14,3.631-14,14v36c0,10.371,3.628,14,14,14h36c10.372,0,14-3.629,14-14v-36
				C148,158.631,144.372,155,134,155L134,155z"/>
		</g>
		<path style="opacity:0.5;" d="M134,155H98c-10.372,0-14,3.631-14,14v36c0,10.371,3.628,14,14,14h36c10.372,0,14-3.629,14-14v-36
			C148,158.631,144.372,155,134,155z"/>
	</g>
	<g id="meegotouch-keyboard-key-selected">
		<path style="fill:#F7931E;" d="M134,229H98c-10.372,0-14,3.631-14,14v36c0,10.371,3.628,14,14,14h36c10.369,0,14-3.629,14-14v-36
			C148,232.631,144.369,229,134,229z"/>
		<linearGradient id="SVGID_3_" gradientUnits="userSpaceOnUse" x1="115.9995" y1="229" x2="115.9995" y2="293.0005">
			<stop  offset="0" style="stop-color:#FFFFFF"/>
			<stop  offset="0.1463" style="stop-color:#FFFFFF;stop-opacity:0.8537"/>
			<stop  offset="1" style="stop-color:#FFFFFF;stop-opacity:0"/>
		</linearGradient>
		<path style="opacity:0.3;fill:url(#SVGID_3_);" d="M134,229H98c-10.372,0-14,3.631-14,14v36c0,10.371,3.628,14,14,14h36
			c10.369,0,14-3.629,14-14v-36C148,232.631,144.369,229,134,229z"/>
		<g>
			<path style="fill:#808080;" d="M134,230c9.841,0,13,3.159,13,13v36c0,9.841-3.159,13-13,13H98c-9.841,0-13-3.159-13-13v-36
				c0-9.841,3.159-13,13-13H134 M134,229H98c-10.372,0-14,3.631-14,14v36c0,10.371,3.628,14,14,14h36c10.369,0,14-3.629,14-14v-36
				C148,232.631,144.369,229,134,229L134,229z"/>
		</g>
	</g>
	<g id="meegotouch-keyboard-key-pressed-selected">
		<path style="fill:#F7931E;" d="M134.5,303h-36c-10.372,0-14,3.631-14,14v36c0,10.371,3.628,14,14,14h36c10.369,0,14-3.629,14-14
			v-36C148.5,306.631,144.869,303,134.5,303z"/>
		<linearGradient id="SVGID_4_" gradientUnits="userSpaceOnUse" x1="116.4995" y1="303" x2="116.4995" y2="367">
			<stop  offset="0" style="stop-color:#FFFFFF"/>
			<stop  offset="0.1463" style="stop-color:#FFFFFF;stop-opacity:0.8537"/>
			<stop  offset="1" style="stop-color:#FFFFFF;stop-opacity:0"/>
		</linearGradient>
		<path style="opacity:0.3;fill:url(#SVGID_4_);" d="M134.5,303h-36c-10.372,0-14,3.631-14,14v36c0,10.371,3.628,14,14,14h36
			c10.369,0,14-3.629,14-14v-36C148.5,306.631,144.869,303,134.5,303z"/>
		<g>
			<path style="fill:#808080;" d="M134.5,304c9.841,0,13,3.159,13,13v36c0,9.841-3.159,13-13,13h-36c-9.841,0-13-3.159-13-13v-36
				c0-9.841,3.159-13,13-13H134.5 M134.5,303h-36c-10.372,0-14,3.631-14,14v36c0,10.371,3.628,14,14,14h36c10.369,0,14-3.629,14-14
				v-36C148.5,306.631,144.869,303,134.5,303L134.5,303z"/>
		</g>
		<path style="opacity:0.5;" d="M134.5,303h-36c-10.372,0-14,3.631-14,14v36c0,10.371,3.628,14,14,14h36c10.372,0,14-3.629,14-14
			v-36C148.5,306.631,144.872,303,134.5,303z"/>
	</g>
	<g id="meegotouch-keyboard-function-key">
		<path style="fill:#646464;" d="M208.192,81h-36c-10.373,0-14,3.631-14,14v36c0,10.371,3.627,14,14,14h36c10.371,0,14-3.629,14-14
			V95C222.192,84.631,218.563,81,208.192,81z"/>
		<linearGradient id="SVGID_5_" gradientUnits="userSpaceOnUse" x1="190.1924" y1="81" x2="190.1924" y2="145">
			<stop  offset="0" style="stop-color:#FFFFFF"/>
			<stop  offset="0.1463" style="stop-color:#FFFFFF;stop-opacity:0.8537"/>
			<stop  offset="1" style="stop-color:#FFFFFF;stop-opacity:0"/>
		</linearGradient>
		<path style="opacity:0.15;fill:url(#SVGID_5_);" d="M208.192,81h-36c-10.373,0-14,3.631-14,14v36c0,10.371,3.627,14,14,14h36
			c10.371,0,14-3.629,14-14V95C222.192,84.631,218.563,81,208.192,81z"/>
		<g>
			<path style="fill:#808080;" d="M208.192,82c9.841,0,13,3.159,13,13v36c0,9.841-3.159,13-13,13h-36c-9.841,0-13-3.159-13-13V95
				c0-9.841,3.159-13,13-13H208.192 M208.192,81h-36c-10.373,0-14,3.631-14,14v36c0,10.371,3.627,14,14,14h36
				c10.371,0,14-3.629,14-14V95C222.192,84.631,218.563,81,208.192,81L208.192,81z"/>
		</g>
	</g>
	<g id="meegotouch-keyboard-function-key-pressed">
		<path style="fill:#646464;" d="M208.192,155h-36c-10.371,0-14,3.631-14,14v36c0,10.371,3.629,14,14,14h36c10.371,0,14-3.629,14-14
			v-36C222.192,158.631,218.563,155,208.192,155z"/>
		<linearGradient id="SVGID_6_" gradientUnits="userSpaceOnUse" x1="190.1924" y1="155" x2="190.1924" y2="219">
			<stop  offset="0" style="stop-color:#FFFFFF"/>
			<stop  offset="0.1463" style="stop-color:#FFFFFF;stop-opacity:0.8537"/>
			<stop  offset="1" style="stop-color:#FFFFFF;stop-opacity:0"/>
		</linearGradient>
		<path style="opacity:0.15;fill:url(#SVGID_6_);" d="M208.192,155h-36c-10.371,0-14,3.631-14,14v36c0,10.371,3.629,14,14,14h36
			c10.371,0,14-3.629,14-14v-36C222.192,158.631,218.563,155,208.192,155z"/>
		<g>
			<path style="fill:#808080;" d="M208.192,156c9.841,0,13,3.159,13,13v36c0,9.841-3.159,13-13,13h-36c-9.841,0-13-3.159-13-13v-36
				c0-9.841,3.159-13,13-13H208.192 M208.192,155h-36c-10.371,0-14,3.631-14,14v36c0,10.371,3.629,14,14,14h36
				c10.371,0,14-3.629,14-14v-36C222.192,158.631,218.563,155,208.192,155L208.192,155z"/>
		</g>
		<path style="opacity:0.5;" d="M208.192,155h-36c-10.373,0-14,3.631-14,14v36c0,10.371,3.627,14,14,14h36c10.371,0,14-3.629,14-14
			v-36C222.192,158.631,218.563,155,208.192,155z"/>
	</g>
	<g id="meegotouch-keyboard-border-top">
		<rect x="10" y="463.036" style="fill:#FFFFFF;" width="480" height="1"/>
		
			<linearGradient id="SVGID_7_" gradientUnits="userSpaceOnUse" x1="9502.0039" y1="-916.9634" x2="9502.0039" y2="-928.9634" gradientTransform="matrix(1 0 0 1 -9252.0039 1379.999)">
			<stop  offset="0" style="stop-color:#000000"/>
			<stop  offset="0.1471" style="stop-color:#000000;stop-opacity:0.8529"/>
			<stop  offset="1" style="stop-color:#000000;stop-opacity:0"/>
		</linearGradient>
		<rect x="10" y="451.036" style="opacity:0.25;fill:url(#SVGID_7_);" width="480" height="12"/>
	</g>
	<g id="meegotouch-keyboard-paging-indicator-selected">
		<path id="_x32_" style="fill:#FFFFFF;" d="M20.672,437.973c0,2.963-1.037,4-4,4s-4-1.037-4-4c0-2.964,1.037-4,4-4
			S20.672,435.009,20.672,437.973z"/>
	</g>
	<g id="meegotouch-keyboard-paging-indicator">
		<path id="_x31_" style="fill:#FFFFFF;" d="M16.672,418.972c-2.963,0-4,1.036-4,4c0,2.963,1.037,4,4,4s4-1.037,4-4
			C20.672,420.008,19.635,418.972,16.672,418.972z M16.672,426.337c-2.61,0-3.365-0.756-3.365-3.365
			c0-2.611,0.755-3.365,3.365-3.365s3.365,0.754,3.365,3.365C20.038,425.581,19.283,426.337,16.672,426.337z"/>
	</g>
	<g id="meegotouch-keyboard-function-key-selected">
		<path style="fill:#F7931E;" d="M208.192,229h-35.999c-10.373,0-14,3.631-14,14v36c0,10.371,3.627,14,14,14h35.999
			c10.369,0,14-3.629,14-14v-36C222.192,232.631,218.562,229,208.192,229z"/>
		<linearGradient id="SVGID_8_" gradientUnits="userSpaceOnUse" x1="190.1929" y1="229" x2="190.1929" y2="293.0005">
			<stop  offset="0" style="stop-color:#FFFFFF"/>
			<stop  offset="0.1463" style="stop-color:#FFFFFF;stop-opacity:0.8537"/>
			<stop  offset="1" style="stop-color:#FFFFFF;stop-opacity:0"/>
		</linearGradient>
		<path style="opacity:0.3;fill:url(#SVGID_8_);" d="M208.192,229h-35.999c-10.373,0-14,3.631-14,14v36c0,10.371,3.627,14,14,14
			h35.999c10.369,0,14-3.629,14-14v-36C222.192,232.631,218.562,229,208.192,229z"/>
		<g>
			<path style="fill:#808080;" d="M208.192,230c9.841,0,13,3.159,13,13v36c0,9.841-3.159,13-13,13h-35.999c-9.841,0-13-3.159-13-13
				v-36c0-9.841,3.159-13,13-13H208.192 M208.192,229h-35.999c-10.373,0-14,3.631-14,14v36c0,10.371,3.627,14,14,14h35.999
				c10.369,0,14-3.629,14-14v-36C222.192,232.631,218.562,229,208.192,229L208.192,229z"/>
		</g>
	</g>
	<g id="meegotouch-keyboard-function-key-pressed-selected">
		<path style="fill:#F7931E;" d="M208.191,303.268h-35.999c-10.373,0-14,3.631-14,14v36c0,10.371,3.627,14,14,14h35.999
			c10.369,0,14-3.629,14-14v-36C222.191,306.898,218.561,303.268,208.191,303.268z"/>
		<linearGradient id="SVGID_9_" gradientUnits="userSpaceOnUse" x1="190.1919" y1="303.2676" x2="190.1919" y2="367.2676">
			<stop  offset="0" style="stop-color:#FFFFFF"/>
			<stop  offset="0.1463" style="stop-color:#FFFFFF;stop-opacity:0.8537"/>
			<stop  offset="1" style="stop-color:#FFFFFF;stop-opacity:0"/>
		</linearGradient>
		<path style="opacity:0.3;fill:url(#SVGID_9_);" d="M208.191,303.268h-35.999c-10.373,0-14,3.631-14,14v36c0,10.371,3.627,14,14,14
			h35.999c10.369,0,14-3.629,14-14v-36C222.191,306.898,218.561,303.268,208.191,303.268z"/>
		<g>
			<path style="fill:#808080;" d="M208.191,304.268c9.841,0,13,3.159,13,13v36c0,9.841-3.159,13-13,13h-35.999
				c-9.841,0-13-3.159-13-13v-36c0-9.841,3.159-13,13-13H208.191 M208.191,303.268h-35.999c-10.373,0-14,3.631-14,14v36
				c0,10.371,3.627,14,14,14h35.999c10.369,0,14-3.629,14-14v-36C222.191,306.898,218.561,303.268,208.191,303.268L208.191,303.268z
				"/>
		</g>
		<path style="opacity:0.5;" d="M208.191,303.268h-35.999c-10.373,0-14,3.631-14,14v36c0,10.371,3.627,14,14,14h35.999
			c10.371,0,14-3.629,14-14v-36C222.191,306.898,218.562,303.268,208.191,303.268z"/>
	</g>
	<g id="meegotouch-keyboard-toolbar-button-selected">
		<path style="fill:#F7931E;" d="M282.192,229h-36c-10.372,0-14,3.631-14,14v36c0,10.371,3.628,14,14,14h36c10.369,0,14-3.629,14-14
			v-36C296.192,232.631,292.562,229,282.192,229z"/>
		<linearGradient id="SVGID_10_" gradientUnits="userSpaceOnUse" x1="264.1924" y1="229" x2="264.1924" y2="293.0005">
			<stop  offset="0" style="stop-color:#FFFFFF"/>
			<stop  offset="0.1463" style="stop-color:#FFFFFF;stop-opacity:0.8537"/>
			<stop  offset="1" style="stop-color:#FFFFFF;stop-opacity:0"/>
		</linearGradient>
		<path style="opacity:0.3;fill:url(#SVGID_10_);" d="M282.192,229h-36c-10.372,0-14,3.631-14,14v36c0,10.371,3.628,14,14,14h36
			c10.369,0,14-3.629,14-14v-36C296.192,232.631,292.562,229,282.192,229z"/>
		<g>
			<path style="fill:#808080;" d="M282.192,230c9.841,0,13,3.159,13,13v36c0,9.841-3.159,13-13,13h-36c-9.841,0-13-3.159-13-13v-36
				c0-9.841,3.159-13,13-13H282.192 M282.192,229h-36c-10.372,0-14,3.631-14,14v36c0,10.371,3.628,14,14,14h36
				c10.369,0,14-3.629,14-14v-36C296.192,232.631,292.562,229,282.192,229L282.192,229z"/>
		</g>
	</g>
	<g id="meegotouch-keyboard-toolbar-button-pressed-selected">
		<path style="fill:#F7931E;" d="M282.192,303.534h-36c-10.372,0-14,3.631-14,14v36c0,10.371,3.628,14,14,14h36
			c10.369,0,14-3.629,14-14v-36C296.192,307.165,292.562,303.534,282.192,303.534z"/>
		<linearGradient id="SVGID_11_" gradientUnits="userSpaceOnUse" x1="264.1924" y1="303.5342" x2="264.1924" y2="367.5342">
			<stop  offset="0" style="stop-color:#FFFFFF"/>
			<stop  offset="0.1463" style="stop-color:#FFFFFF;stop-opacity:0.8537"/>
			<stop  offset="1" style="stop-color:#FFFFFF;stop-opacity:0"/>
		</linearGradient>
		<path style="opacity:0.3;fill:url(#SVGID_11_);" d="M282.192,303.534h-36c-10.372,0-14,3.631-14,14v36c0,10.371,3.628,14,14,14h36
			c10.369,0,14-3.629,14-14v-36C296.192,307.165,292.562,303.534,282.192,303.534z"/>
		<g>
			<path style="fill:#808080;" d="M282.192,304.534c9.841,0,13,3.159,13,13v36c0,9.841-3.159,13-13,13h-36c-9.841,0-13-3.159-13-13
				v-36c0-9.841,3.159-13,13-13H282.192 M282.192,303.534h-36c-10.372,0-14,3.631-14,14v36c0,10.371,3.628,14,14,14h36
				c10.369,0,14-3.629,14-14v-36C296.192,307.165,292.562,303.534,282.192,303.534L282.192,303.534z"/>
		</g>
		<path style="opacity:0.5;" d="M282.192,303.534h-36c-10.372,0-14,3.631-14,14v36c0,10.371,3.628,14,14,14h36
			c10.372,0,14-3.629,14-14v-36C296.192,307.165,292.564,303.534,282.192,303.534z"/>
	</g>
	<g id="meegotouch-keyboard-toolbar-button-pressed">
		<path style="fill:#282828;" d="M282.192,155h-36c-10.373,0-14,3.631-14,14v36.534c0,10.371,3.627,14,14,14h36
			c10.369,0,14-3.629,14-14V169C296.192,158.631,292.562,155,282.192,155z"/>
		<linearGradient id="SVGID_12_" gradientUnits="userSpaceOnUse" x1="264.1924" y1="155" x2="264.1924" y2="219.5342">
			<stop  offset="0" style="stop-color:#FFFFFF"/>
			<stop  offset="0.1463" style="stop-color:#FFFFFF;stop-opacity:0.8537"/>
			<stop  offset="1" style="stop-color:#FFFFFF;stop-opacity:0"/>
		</linearGradient>
		<path style="opacity:0.15;fill:url(#SVGID_12_);" d="M282.192,155h-36c-10.373,0-14,3.631-14,14v36.534c0,10.371,3.627,14,14,14
			h36c10.369,0,14-3.629,14-14V169C296.192,158.631,292.562,155,282.192,155z"/>
		<g>
			<path style="fill:#808080;" d="M282.192,156c9.841,0,13,3.159,13,13v36.534c0,9.841-3.159,13-13,13h-36c-9.841,0-13-3.159-13-13
				V169c0-9.841,3.159-13,13-13H282.192 M282.192,155h-36c-10.373,0-14,3.631-14,14v36.534c0,10.371,3.627,14,14,14h36
				c10.369,0,14-3.629,14-14V169C296.192,158.631,292.562,155,282.192,155L282.192,155z"/>
		</g>
		<path style="opacity:0.5;" d="M282.192,155h-36c-10.372,0-14,3.631-14,14v36.534c0,10.371,3.628,14,14,14h36
			c10.372,0,14-3.629,14-14V169C296.192,158.631,292.564,155,282.192,155z"/>
	</g>
	<g id="meegotouch-keyboard-toolbar-button">
		<path style="fill:#B3B3B3;" d="M282.192,81h-36c-10.373,0-14,3.631-14,14v36.534c0,10.371,3.627,14,14,14h36
			c10.369,0,14-3.629,14-14V95C296.192,84.631,292.562,81,282.192,81z"/>
		<linearGradient id="SVGID_13_" gradientUnits="userSpaceOnUse" x1="264.1924" y1="81" x2="264.1924" y2="145.5342">
			<stop  offset="0" style="stop-color:#FFFFFF"/>
			<stop  offset="0.1463" style="stop-color:#FFFFFF;stop-opacity:0.8537"/>
			<stop  offset="1" style="stop-color:#FFFFFF;stop-opacity:0"/>
		</linearGradient>
		<path style="opacity:0.15;fill:url(#SVGID_13_);" d="M282.192,81h-36c-10.373,0-14,3.631-14,14v36.534c0,10.371,3.627,14,14,14h36
			c10.369,0,14-3.629,14-14V95C296.192,84.631,292.562,81,282.192,81z"/>
		<g>
			<path style="fill:#808080;" d="M282.192,82c9.841,0,13,3.159,13,13v36.534c0,9.841-3.159,13-13,13h-36c-9.841,0-13-3.159-13-13
				V95c0-9.841,3.159-13,13-13H282.192 M282.192,81h-36c-10.373,0-14,3.631-14,14v36.534c0,10.371,3.627,14,14,14h36
				c10.369,0,14-3.629,14-14V95C296.192,84.631,292.562,81,282.192,81L282.192,81z"/>
		</g>
	</g>
	<g id="meegotouch-keyboard-toolbar-action-key">
		<path style="fill:#F7931E;" d="M356.192,81h-36c-10.372,0-14,3.631-14,14v36c0,10.371,3.628,14,14,14h36c10.369,0,14-3.629,14-14
			V95C370.192,84.631,366.562,81,356.192,81z"/>
		<linearGradient id="SVGID_14_" gradientUnits="userSpaceOnUse" x1="338.1924" y1="81" x2="338.1924" y2="145">
			<stop  offset="0" style="stop-color:#FFFFFF"/>
			<stop  offset="0.1463" style="stop-color:#FFFFFF;stop-opacity:0.8537"/>
			<stop  offset="1" style="stop-color:#FFFFFF;stop-opacity:0"/>
		</linearGradient>
		<path style="opacity:0.3;fill:url(#SVGID_14_);" d="M356.192,81h-36c-10.372,0-14,3.631-14,14v36c0,10.371,3.628,14,14,14h36
			c10.369,0,14-3.629,14-14V95C370.192,84.631,366.562,81,356.192,81z"/>
		<g>
			<path style="fill:#808080;" d="M356.192,82c9.841,0,13,3.159,13,13v36c0,9.841-3.159,13-13,13h-36c-9.841,0-13-3.159-13-13V95
				c0-9.841,3.159-13,13-13H356.192 M356.192,81h-36c-10.372,0-14,3.631-14,14v36c0,10.371,3.628,14,14,14h36
				c10.369,0,14-3.629,14-14V95C370.192,84.631,366.562,81,356.192,81L356.192,81z"/>
		</g>
	</g>
	<g id="meegotouch-keyboard-toolbar-action-key-pressed">
		<path style="fill:#F7931E;" d="M356.192,155h-36c-10.372,0-14,3.631-14,14v36c0,10.371,3.628,14,14,14h36c10.369,0,14-3.629,14-14
			v-36C370.192,158.631,366.562,155,356.192,155z"/>
		<linearGradient id="SVGID_15_" gradientUnits="userSpaceOnUse" x1="338.1924" y1="155" x2="338.1924" y2="219">
			<stop  offset="0" style="stop-color:#FFFFFF"/>
			<stop  offset="0.1463" style="stop-color:#FFFFFF;stop-opacity:0.8537"/>
			<stop  offset="1" style="stop-color:#FFFFFF;stop-opacity:0"/>
		</linearGradient>
		<path style="opacity:0.3;fill:url(#SVGID_15_);" d="M356.192,155h-36c-10.372,0-14,3.631-14,14v36c0,10.371,3.628,14,14,14h36
			c10.369,0,14-3.629,14-14v-36C370.192,158.631,366.562,155,356.192,155z"/>
		<g>
			<path style="fill:#808080;" d="M356.192,156c9.841,0,13,3.159,13,13v36c0,9.841-3.159,13-13,13h-36c-9.841,0-13-3.159-13-13v-36
				c0-9.841,3.159-13,13-13H356.192 M356.192,155h-36c-10.372,0-14,3.631-14,14v36c0,10.371,3.628,14,14,14h36
				c10.369,0,14-3.629,14-14v-36C370.192,158.631,366.562,155,356.192,155L356.192,155z"/>
		</g>
		<path style="opacity:0.5;" d="M356.192,155h-36c-10.372,0-14,3.631-14,14v36c0,10.371,3.628,14,14,14h36c10.372,0,14-3.629,14-14
			v-36C370.192,158.631,366.564,155,356.192,155z"/>
	</g>
</g>
</svg>
