<?xml version="1.0" encoding="iso-8859-1"?>
<!-- Generator: Adobe Illustrator 14.0.0, SVG Export Plug-In . SVG Version: 6.00 Build 43363)  -->
<!DOCTYPE svg PUBLIC "-//W3C//DTD SVG 1.1//EN" "http://www.w3.org/Graphics/SVG/1.1/DTD/svg11.dtd">
<svg version="1.1" id="meegotouch-keyboard-layer" xmlns="http://www.w3.org/2000/svg" xmlns:xlink="http://www.w3.org/1999/xlink"
	 x="0px" y="0px" width="500px" height="480px" viewBox="0 0 500 480" style="enable-background:new 0 0 500 480;"
	 xml:space="preserve">
<g id="meegotouch-keyboard">
	<g id="virtualmeegotouch-keyboardThemeTemplateHelper">
		<g id="vkbhelperBackground">
			<g>
				<path style="fill:#B3B3B3;" d="M16,479c-8.271,0-15-6.729-15-15V16C1,7.729,7.729,1,16,1h468c8.271,0,15,6.729,15,15v448
					c0,8.271-6.729,15-15,15H16z"/>
				<g>
					<path d="M484,2c7.72,0,14,6.28,14,14v448c0,7.72-6.28,14-14,14H16c-7.72,0-14-6.28-14-14V16C2,8.28,8.28,2,16,2H484 M484,0H16
						C7.2,0,0,7.2,0,16v448c0,8.8,7.2,16,16,16h468c8.8,0,16-7.2,16-16V16C500,7.2,492.8,0,484,0L484,0z"/>
				</g>
			</g>
		</g>
		<g>
			<path style="fill:#010101;" d="M145.746,43.409l-5.634-20.794h3.138l4.352,17.307l4.561-17.307h2.72l-5.83,20.794H145.746z"/>
			<path style="fill:#010101;" d="M160.417,43.409h-2.971V29.128h-1.855v-1.938h4.826V43.409z M158.939,21.499
				c0.456,0,0.849,0.167,1.179,0.502s0.495,0.729,0.495,1.186c0,0.465-0.163,0.862-0.488,1.192c-0.326,0.33-0.721,0.495-1.186,0.495
				c-0.474,0-0.874-0.165-1.199-0.495c-0.326-0.33-0.488-0.728-0.488-1.192c0-0.474,0.163-0.874,0.488-1.2
				C158.065,21.662,158.465,21.499,158.939,21.499z"/>
			<path style="fill:#010101;" d="M166.303,27.189l0.683,2.705c0.902-1.906,2.473-2.859,4.714-2.859
				c0.298,0,0.516,0.015,0.656,0.043v2.705c-0.232-0.019-0.581-0.027-1.046-0.027c-1.274,0-2.208,0.305-2.803,0.913
				c-0.595,0.608-0.893,1.56-0.893,2.853v9.888h-2.971v-16.22H166.303z"/>
			<path style="fill:#010101;" d="M178.98,43.633c-1.265,0-2.19-0.295-2.775-0.887c-0.586-0.59-0.879-1.531-0.879-2.824V29.128
				h-2.134v-1.116l4.337-4.421h0.767v3.599h3.947v1.938h-3.947v10.307c0,0.884,0.144,1.467,0.433,1.75
				c0.288,0.284,0.725,0.425,1.311,0.425c0.604,0,1.422-0.134,2.455-0.404v1.926C181.249,43.465,180.077,43.633,178.98,43.633z"/>
			<path style="fill:#010101;" d="M189.65,43.633c-1.655,0-2.894-0.431-3.717-1.291c-0.823-0.859-1.234-2.149-1.234-3.869V27.189
				h2.971v10.767c0,1.218,0.214,2.132,0.642,2.741c0.428,0.608,1.074,0.912,1.938,0.912c1.079,0,1.913-0.408,2.503-1.227
				s0.886-1.883,0.886-3.193v-10h2.971v16.22h-1.646l-0.6-2.399C193.332,42.758,191.761,43.633,189.65,43.633z"/>
			<path style="fill:#010101;" d="M209.078,41.066c-1.004,1.711-2.566,2.566-4.686,2.566c-1.479,0-2.629-0.416-3.452-1.248
				c-0.823-0.832-1.234-1.997-1.234-3.494c0-1.543,0.423-2.693,1.269-3.452c0.846-0.757,1.859-1.231,3.041-1.423
				c1.181-0.189,2.617-0.285,4.31-0.285v-1.911c0-1.888-1.009-2.831-3.026-2.831c-1.163,0-2.581,0.246-4.254,0.739v-2.078
				c1.683-0.465,3.282-0.697,4.797-0.697c1.786,0,3.141,0.431,4.066,1.29c0.925,0.859,1.388,2.127,1.388,3.801v11.366h-1.618
				L209.078,41.066z M208.325,35.502h-1.66c-1.33,0-2.327,0.281-2.992,0.844c-0.665,0.562-0.997,1.4-0.997,2.517
				c0,0.911,0.202,1.593,0.606,2.044s1.011,0.676,1.82,0.676c1.022,0,1.815-0.325,2.378-0.977c0.562-0.65,0.844-1.533,0.844-2.649
				V35.502z"/>
			<path style="fill:#010101;" d="M215.298,43.409V21.332h2.971v22.077H215.298z"/>
			<path style="fill:#010101;" d="M235.242,34.246l5.914,9.163h-3.515l-5.579-8.828v8.828h-2.971V21.332h2.971v13.193l5.495-7.336
				h3.25L235.242,34.246z"/>
			<path style="fill:#010101;" d="M253.066,40.927v2.022c-1.461,0.455-2.971,0.684-4.533,0.684c-2.269,0-3.966-0.684-5.091-2.051
				s-1.688-3.473-1.688-6.318c0-2.5,0.544-4.512,1.632-6.031c1.088-1.521,2.641-2.28,4.658-2.28c1.636,0,2.866,0.435,3.689,1.304
				c0.822,0.869,1.35,1.934,1.582,3.193c0.232,1.261,0.35,2.76,0.35,4.498h-8.759c0,1.889,0.335,3.304,1.004,4.247
				c0.669,0.944,1.673,1.415,3.012,1.415C250.058,41.609,251.438,41.383,253.066,40.927z M244.907,34.121h5.844
				c0-1.962-0.232-3.348-0.697-4.156s-1.134-1.214-2.008-1.214c-0.976,0-1.723,0.419-2.238,1.255
				C245.291,30.844,244.991,32.215,244.907,34.121z"/>
			<path style="fill:#010101;" d="M259.578,42.81l-4.435-15.62h3.054l3.543,13.444l3.695-13.444h2.678l-5.076,17.195
				c-0.391,1.293-0.939,2.244-1.646,2.854c-0.706,0.607-1.627,0.912-2.761,0.912c-0.781,0-1.646-0.098-2.595-0.292v-2.05
				c0.855,0.167,1.636,0.25,2.343,0.25c0.642,0,1.164-0.216,1.569-0.648c0.404-0.432,0.792-1.299,1.165-2.601H259.578z"/>
			<path style="fill:#010101;" d="M273.303,21.332v7.363c1.06-1.162,2.375-1.743,3.947-1.743c1.812,0,3.174,0.669,4.086,2.009
				c0.911,1.338,1.367,3.347,1.367,6.024s-0.614,4.774-1.842,6.29c-1.227,1.516-2.914,2.273-5.062,2.273
				c-2.111,0-3.933-0.094-5.467-0.279V21.332H273.303z M273.303,35.236v6.15c0.864,0.111,1.637,0.168,2.314,0.168
				c1.367,0,2.376-0.5,3.027-1.5c0.65-0.999,0.977-2.717,0.977-5.152c0-1.972-0.256-3.45-0.768-4.436
				c-0.512-0.986-1.273-1.479-2.287-1.479c-0.986,0-1.716,0.298-2.189,0.893c-0.475,0.596-0.772,1.318-0.893,2.169
				C273.363,32.9,273.303,33.963,273.303,35.236z"/>
			<path style="fill:#010101;" d="M291.922,43.633c-2.186,0-3.822-0.717-4.91-2.148s-1.631-3.58-1.631-6.443
				c0-2.492,0.564-4.463,1.693-5.913c1.131-1.45,2.746-2.176,4.848-2.176c2.119,0,3.739,0.716,4.859,2.147
				c1.121,1.432,1.682,3.432,1.682,5.997c0,2.642-0.523,4.724-1.569,6.249C295.848,42.87,294.189,43.633,291.922,43.633z
				 M291.922,41.722c1.143,0,2.006-0.519,2.586-1.556c0.582-1.036,0.873-2.772,0.873-5.209c0-1.72-0.299-3.163-0.893-4.33
				c-0.596-1.166-1.451-1.75-2.566-1.75c-1.135,0-1.994,0.525-2.58,1.576s-0.879,2.552-0.879,4.504c0,2.195,0.293,3.871,0.879,5.028
				S290.787,41.722,291.922,41.722z"/>
			<path style="fill:#010101;" d="M310.233,41.066c-1.004,1.711-2.566,2.566-4.687,2.566c-1.479,0-2.629-0.416-3.451-1.248
				c-0.823-0.832-1.234-1.997-1.234-3.494c0-1.543,0.423-2.693,1.27-3.452c0.846-0.757,1.859-1.231,3.04-1.423
				c1.181-0.189,2.617-0.285,4.31-0.285v-1.911c0-1.888-1.01-2.831-3.026-2.831c-1.163,0-2.581,0.246-4.254,0.739v-2.078
				c1.683-0.465,3.282-0.697,4.798-0.697c1.785,0,3.141,0.431,4.065,1.29s1.388,2.127,1.388,3.801v11.366h-1.618L310.233,41.066z
				 M309.48,35.502h-1.66c-1.33,0-2.326,0.281-2.991,0.844s-0.997,1.4-0.997,2.517c0,0.911,0.202,1.593,0.606,2.044
				s1.011,0.676,1.82,0.676c1.022,0,1.815-0.325,2.378-0.977c0.562-0.65,0.844-1.533,0.844-2.649V35.502z"/>
			<path style="fill:#010101;" d="M318.113,27.189l0.684,2.705c0.901-1.906,2.473-2.859,4.713-2.859
				c0.299,0,0.517,0.015,0.656,0.043v2.705c-0.232-0.019-0.581-0.027-1.046-0.027c-1.274,0-2.208,0.305-2.804,0.913
				c-0.595,0.608-0.893,1.56-0.893,2.853v9.888h-2.971v-16.22H318.113z"/>
			<path style="fill:#010101;" d="M336.383,43.409l-0.627-1.994c-0.855,1.478-2.32,2.218-4.394,2.218
				c-1.925,0-3.373-0.682-4.345-2.043c-0.971-1.363-1.457-3.49-1.457-6.381c0-2.428,0.518-4.41,1.555-5.949
				c1.037-1.538,2.508-2.308,4.414-2.308c1.562,0,2.734,0.47,3.516,1.409v-7.029h2.971v22.077H336.383z M335.143,36.018
				l-0.015-0.921c0-2.417-0.272-4.049-0.815-4.896c-0.545-0.846-1.318-1.269-2.322-1.269c-1.115,0-1.953,0.517-2.511,1.548
				c-0.558,1.032-0.837,2.58-0.837,4.645c0,2.166,0.27,3.789,0.809,4.867s1.349,1.617,2.428,1.617c1.051,0,1.856-0.39,2.42-1.171
				C334.861,39.658,335.143,38.184,335.143,36.018z"/>
		</g>
	</g>
	<g id="meegotouch-keyboard-handle-decoration">
		<circle style="fill:#6E6F71;" cx="96" cy="377.999" r="2"/>
		<circle style="fill:#6E6F71;" cx="104.167" cy="377.999" r="2"/>
		<circle style="fill:#6E6F71;" cx="112.337" cy="377.999" r="2"/>
		<circle style="fill:#6E6F71;" cx="120.505" cy="377.999" r="2"/>
		<circle style="fill:#6E6F71;" cx="128.675" cy="377.999" r="2"/>
		<circle style="fill:#6E6F71;" cx="136.843" cy="377.999" r="2"/>
		<circle style="fill:#6E6F71;" cx="145.013" cy="377.999" r="2"/>
		<circle style="fill:#6E6F71;" cx="153.181" cy="377.999" r="2"/>
		<circle style="fill:#6E6F71;" cx="161.351" cy="377.999" r="2"/>
	</g>
	<g id="meegotouch-keyboard-handle-background">
		<rect x="94" y="389.999" style="fill:#F2F2F2;" width="64" height="6"/>
	</g>
	<g id="meegotouch-keyboard-background">
		<rect x="20" y="77" style="fill:#F2F2F2;" width="64" height="64"/>
	</g>
	<g id="meegotouch-candidatelist-background">
		<path style="fill:#D1D2D3;" d="M82,283c0,5.5-4.5,10-10,10H28c-5.5,0-10-4.5-10-10v-44c0-5.5,4.5-10,10-10h44c5.5,0,10,4.5,10,10
			V283z"/>
		<path style="fill:#F2F2F2;" d="M28,291c-4.411,0-8-3.589-8-8v-44c0-4.411,3.589-8,8-8h44c4.411,0,8,3.589,8,8v44
			c0,4.411-3.589,8-8,8H28z"/>
	</g>
	<g id="meegotouch-keyboard-toolbar-background">
		<rect x="20" y="154" style="fill:#F2F2F2;" width="64" height="64"/>
	</g>
	<g id="meegotouch-keyboard-toolbar-button-pressed-selected">
		<g>
			<path style="fill:#333333;" d="M94,311.999c0-5.5,4.5-10,10-10h44c5.5,0,10,4.5,10,10v29c0,5.5-4.5,10-10,10h-44
				c-5.5,0-10-4.5-10-10V311.999z"/>
		</g>
		<g style="opacity:0.8;">
			<path style="fill:#FFFFFF;" d="M94,313.999c0-5.5,4.5-10,10-10h44c5.5,0,10,4.5,10,10v29c0,5.5-4.5,10-10,10h-44
				c-5.5,0-10-4.5-10-10V313.999z"/>
		</g>
		<g>
			<linearGradient id="SVGID_1_" gradientUnits="userSpaceOnUse" x1="125.9995" y1="351.999" x2="125.9995" y2="302.999">
				<stop  offset="0" style="stop-color:#2AAAE2"/>
				<stop  offset="1" style="stop-color:#1F749A"/>
			</linearGradient>
			<path style="fill:url(#SVGID_1_);" d="M158,341.999c0,5.5-4.5,10-10,10h-44c-5.5,0-10-4.5-10-10v-29c0-5.5,4.5-10,10-10h44
				c5.5,0,10,4.5,10,10V341.999z"/>
		</g>
	</g>
	<g id="meegotouch-keyboard-toolbar-button-selected">
		<g>
			<path style="fill:#333333;" d="M158,269c0,5.5-4.5,10-10,10h-44c-5.5,0-10-4.5-10-10v-29c0-5.5,4.5-10,10-10h44
				c5.5,0,10,4.5,10,10V269z"/>
		</g>
		<g>
			<path style="fill:#CCCCCC;" d="M158,267c0,5.5-4.5,10-10,10h-44c-5.5,0-10-4.5-10-10v-29c0-5.5,4.5-10,10-10h44
				c5.5,0,10,4.5,10,10V267z"/>
		</g>
		<g>
			<linearGradient id="SVGID_2_" gradientUnits="userSpaceOnUse" x1="125.9995" y1="278" x2="125.9995" y2="229.0005">
				<stop  offset="0" style="stop-color:#2AAAE2"/>
				<stop  offset="1" style="stop-color:#83D5F7"/>
			</linearGradient>
			<path style="fill:url(#SVGID_2_);" d="M158,268c0,5.5-4.5,10-10,10h-44c-5.5,0-10-4.5-10-10v-29c0-5.5,4.5-10,10-10h44
				c5.5,0,10,4.5,10,10V268z"/>
		</g>
	</g>
	<g id="meegotouch-keyboard-toolbar-button-pressed">
		<g>
			<path style="fill:#333333;" d="M94,164c0-5.5,4.5-10,10-10h44c5.5,0,10,4.5,10,10v29c0,5.5-4.5,10-10,10h-44c-5.5,0-10-4.5-10-10
				V164z"/>
		</g>
		<g>
			<path style="fill:#FFFFFF;" d="M94,166c0-5.5,4.5-10,10-10h44c5.5,0,10,4.5,10,10v29c0,5.5-4.5,10-10,10h-44c-5.5,0-10-4.5-10-10
				V166z"/>
		</g>
		<g>
			<linearGradient id="SVGID_3_" gradientUnits="userSpaceOnUse" x1="125.9995" y1="155" x2="125.9995" y2="204">
				<stop  offset="0" style="stop-color:#4D4D4D"/>
				<stop  offset="1" style="stop-color:#B3B3B3"/>
			</linearGradient>
			<path style="fill:url(#SVGID_3_);" d="M158,194c0,5.5-4.5,10-10,10h-44c-5.5,0-10-4.5-10-10v-29c0-5.5,4.5-10,10-10h44
				c5.5,0,10,4.5,10,10V194z"/>
		</g>
	</g>
	<g id="meegotouch-keyboard-toolbar-button">
		<g>
			<path style="fill:#808080;" d="M158,121c0,5.5-4.5,10-10,10h-44c-5.5,0-10-4.5-10-10V92c0-5.5,4.5-10,10-10h44
				c5.5,0,10,4.5,10,10V121z"/>
		</g>
		<g>
			<path style="fill:#FFFFFF;" d="M158,119c0,5.5-4.5,10-10,10h-44c-5.5,0-10-4.5-10-10V90c0-5.5,4.5-10,10-10h44
				c5.5,0,10,4.5,10,10V119z"/>
		</g>
		<g>
			<linearGradient id="SVGID_4_" gradientUnits="userSpaceOnUse" x1="125.9995" y1="81" x2="125.9995" y2="130">
				<stop  offset="0" style="stop-color:#F2F2F2"/>
				<stop  offset="1" style="stop-color:#D2D3D3"/>
			</linearGradient>
			<path style="fill:url(#SVGID_4_);" d="M158,120c0,5.5-4.5,10-10,10h-44c-5.5,0-10-4.5-10-10V91c0-5.5,4.5-10,10-10h44
				c5.5,0,10,4.5,10,10V120z"/>
		</g>
	</g>
	<g id="meegotouch-keyboard-key-pressed-selected-portrait">
		<g>
			<path style="fill:#333333;" d="M238,355.999c0-5.5,4.5-10,10-10h44c5.5,0,10,4.5,10,10v58c0,5.5-4.5,10-10,10h-44
				c-5.5,0-10-4.5-10-10V355.999z"/>
		</g>
		<g style="opacity:0.8;">
			<path style="fill:#FFFFFF;" d="M238,357.999c0-5.5,4.5-10,10-10h44c5.5,0,10,4.5,10,10v58c0,5.5-4.5,10-10,10h-44
				c-5.5,0-10-4.5-10-10V357.999z"/>
		</g>
		<g>
			<linearGradient id="SVGID_5_" gradientUnits="userSpaceOnUse" x1="270" y1="424.999" x2="270" y2="346.999">
				<stop  offset="0" style="stop-color:#2AAAE2"/>
				<stop  offset="1" style="stop-color:#1F749A"/>
			</linearGradient>
			<path style="fill:url(#SVGID_5_);" d="M302,414.999c0,5.5-4.5,10-10,10h-44c-5.5,0-10-4.5-10-10v-58c0-5.5,4.5-10,10-10h44
				c5.5,0,10,4.5,10,10V414.999z"/>
		</g>
	</g>
	<g id="meegotouch-keyboard-key-selected-portrait">
		<g>
			<path style="fill:#333333;" d="M302,329c0,5.5-4.5,10-10,10h-44c-5.5,0-10-4.5-10-10v-58c0-5.5,4.5-10,10-10h44
				c5.5,0,10,4.5,10,10V329z"/>
		</g>
		<g>
			<path style="fill:#CCCCCC;" d="M302,327c0,5.5-4.5,10-10,10h-44c-5.5,0-10-4.5-10-10v-58c0-5.5,4.5-10,10-10h44
				c5.5,0,10,4.5,10,10V327z"/>
		</g>
		<g>
			<linearGradient id="SVGID_6_" gradientUnits="userSpaceOnUse" x1="270" y1="338" x2="270" y2="260">
				<stop  offset="0" style="stop-color:#2AAAE2"/>
				<stop  offset="1" style="stop-color:#83D5F7"/>
			</linearGradient>
			<path style="fill:url(#SVGID_6_);" d="M302,328c0,5.5-4.5,10-10,10h-44c-5.5,0-10-4.5-10-10v-58c0-5.5,4.5-10,10-10h44
				c5.5,0,10,4.5,10,10V328z"/>
		</g>
	</g>
	<g id="meegotouch-keyboard-key-pressed-portrait">
		<g>
			<path style="fill:#333333;" d="M238,178c0-5.5,4.5-10,10-10h44c5.5,0,10,4.5,10,10v58c0,5.5-4.5,10-10,10h-44
				c-5.5,0-10-4.5-10-10V178z"/>
		</g>
		<g>
			<path style="fill:#FFFFFF;" d="M238,180c0-5.5,4.5-10,10-10h44c5.5,0,10,4.5,10,10v58c0,5.5-4.5,10-10,10h-44
				c-5.5,0-10-4.5-10-10V180z"/>
		</g>
		<g>
			<linearGradient id="SVGID_7_" gradientUnits="userSpaceOnUse" x1="270" y1="169" x2="270" y2="247.0005">
				<stop  offset="0" style="stop-color:#4D4D4D"/>
				<stop  offset="1" style="stop-color:#B3B3B3"/>
			</linearGradient>
			<path style="fill:url(#SVGID_7_);" d="M302,237c0,5.5-4.5,10-10,10h-44c-5.5,0-10-4.5-10-10v-58c0-5.5,4.5-10,10-10h44
				c5.5,0,10,4.5,10,10V237z"/>
		</g>
	</g>
	<g id="meegotouch-keyboard-key-portrait">
		<g>
			<path style="fill:#808080;" d="M302,150c0,5.5-4.5,10-10,10h-44c-5.5,0-10-4.5-10-10V92c0-5.5,4.5-10,10-10h44
				c5.5,0,10,4.5,10,10V150z"/>
		</g>
		<g>
			<path style="fill:#FFFFFF;" d="M302,148c0,5.5-4.5,10-10,10h-44c-5.5,0-10-4.5-10-10V90c0-5.5,4.5-10,10-10h44
				c5.5,0,10,4.5,10,10V148z"/>
		</g>
		<g>
			<linearGradient id="SVGID_8_" gradientUnits="userSpaceOnUse" x1="270" y1="81" x2="270" y2="159">
				<stop  offset="0" style="stop-color:#F2F2F2"/>
				<stop  offset="1" style="stop-color:#D2D3D3"/>
			</linearGradient>
			<path style="fill:url(#SVGID_8_);" d="M302,149c0,5.5-4.5,10-10,10h-44c-5.5,0-10-4.5-10-10V91c0-5.5,4.5-10,10-10h44
				c5.5,0,10,4.5,10,10V149z"/>
		</g>
	</g>
	<g id="meegotouch-keyboard-key-sym-selected-landscape">
		<g>
			<path style="fill:#CCCCCC;" d="M473.996,170h-61.992c-5.503,0-10.004,4.406-10.004,9.792v19.228h82v-19.228
				C484,174.406,479.498,170,473.996,170z"/>
			<linearGradient id="SVGID_9_" gradientUnits="userSpaceOnUse" x1="443" y1="199.0195" x2="443" y2="170.9795">
				<stop  offset="0" style="stop-color:#2AAAE2"/>
				<stop  offset="1" style="stop-color:#83D5F7"/>
			</linearGradient>
			<path style="fill:url(#SVGID_9_);" d="M473.996,170.979h-61.992c-5.503,0-10.004,4.406-10.004,9.792v18.248h82v-18.248
				C484,175.386,479.498,170.979,473.996,170.979z"/>
		</g>
		<g>
			<path style="fill:#808080;" d="M402,199.02v17.189c0,5.385,4.501,9.791,10.004,9.791h61.992c5.502,0,10.004-4.406,10.004-9.791
				V199.02H402z"/>
			<linearGradient id="SVGID_10_" gradientUnits="userSpaceOnUse" x1="443" y1="199.0195" x2="443" y2="225.0215">
				<stop  offset="0" style="stop-color:#F2F2F2"/>
				<stop  offset="1" style="stop-color:#D2D3D3"/>
			</linearGradient>
			<path style="fill:url(#SVGID_10_);" d="M402,199.02v16.209c0,5.387,4.501,9.793,10.004,9.793h61.992
				c5.502,0,10.004-4.406,10.004-9.793V199.02H402z"/>
		</g>
	</g>
	<g id="meegotouch-keyboard-key-ace-selected-landscape">
		<g>
			<path style="fill:#FFFFFF;" d="M473.998,81h-61.996C406.5,81,402,85.406,402,90.793v19.227h82V90.793
				C484,85.406,479.498,81,473.998,81z"/>
			<linearGradient id="SVGID_11_" gradientUnits="userSpaceOnUse" x1="443" y1="81.9785" x2="443" y2="110.0195">
				<stop  offset="0" style="stop-color:#F2F2F2"/>
				<stop  offset="1" style="stop-color:#D2D3D3"/>
			</linearGradient>
			<path style="fill:url(#SVGID_11_);" d="M473.998,81.979h-61.996c-5.502,0-10.002,4.407-10.002,9.793v18.248h82V91.771
				C484,86.386,479.498,81.979,473.998,81.979z"/>
		</g>
		<g>
			<path style="fill:#333333;" d="M402,110.02v17.188c0,5.387,4.5,9.793,10.002,9.793h61.996c5.5,0,10.002-4.406,10.002-9.793
				V110.02H402z"/>
			<linearGradient id="SVGID_12_" gradientUnits="userSpaceOnUse" x1="443" y1="136.0215" x2="443" y2="110.0195">
				<stop  offset="0" style="stop-color:#2AAAE2"/>
				<stop  offset="1" style="stop-color:#83D5F7"/>
			</linearGradient>
			<path style="fill:url(#SVGID_12_);" d="M402,110.02v16.209c0,5.386,4.5,9.793,10.002,9.793h61.996
				c5.5,0,10.002-4.407,10.002-9.793V110.02H402z"/>
		</g>
	</g>
	<g id="meegotouch-keyboard-key-sym-selected-portrait">
		<g>
			<path style="fill:#CCCCCC;" d="M382,170h-60c-5.5,0-10,4.5-10,10v29h80v-29C392,174.5,387.5,170,382,170z"/>
			<linearGradient id="SVGID_13_" gradientUnits="userSpaceOnUse" x1="352" y1="209" x2="352" y2="171">
				<stop  offset="0" style="stop-color:#2AAAE2"/>
				<stop  offset="1" style="stop-color:#83D5F7"/>
			</linearGradient>
			<path style="fill:url(#SVGID_13_);" d="M382,171h-60c-5.5,0-10,4.5-10,10v28h80v-28C392,175.5,387.5,171,382,171z"/>
		</g>
		<g>
			<path style="fill:#808080;" d="M312,209v31.001c0,5.5,4.5,9.999,10,9.999h60c5.5,0,10-4.499,10-9.999V209H312z"/>
			<linearGradient id="SVGID_14_" gradientUnits="userSpaceOnUse" x1="352" y1="209" x2="352" y2="249.0005">
				<stop  offset="0" style="stop-color:#F2F2F2"/>
				<stop  offset="1" style="stop-color:#D2D3D3"/>
			</linearGradient>
			<path style="fill:url(#SVGID_14_);" d="M312,209v30.001c0,5.5,4.5,9.999,10,9.999h60c5.5,0,10-4.499,10-9.999V209H312z"/>
		</g>
	</g>
	<g id="meegotouch-keyboard-key-ace-selected-portrait">
		<g>
			<path style="fill:#FFFFFF;" d="M382,80h-60c-5.5,0-10,4.5-10,10v29h80V90C392,84.5,387.5,80,382,80z"/>
			<linearGradient id="SVGID_15_" gradientUnits="userSpaceOnUse" x1="352" y1="81" x2="352" y2="119">
				<stop  offset="0" style="stop-color:#F2F2F2"/>
				<stop  offset="1" style="stop-color:#D2D3D3"/>
			</linearGradient>
			<path style="fill:url(#SVGID_15_);" d="M382,81h-60c-5.5,0-10,4.5-10,10v28h80V91C392,85.5,387.5,81,382,81z"/>
		</g>
		<g>
			<path style="fill:#333333;" d="M312,119v31c0,5.5,4.5,10,10,10h60c5.5,0,10-4.5,10-10v-31H312z"/>
			<linearGradient id="SVGID_16_" gradientUnits="userSpaceOnUse" x1="352" y1="159" x2="352" y2="119">
				<stop  offset="0" style="stop-color:#2AAAE2"/>
				<stop  offset="1" style="stop-color:#83D5F7"/>
			</linearGradient>
			<path style="fill:url(#SVGID_16_);" d="M312,119v30c0,5.5,4.5,10,10,10h60c5.5,0,10-4.5,10-10v-30H312z"/>
		</g>
	</g>
	<g id="meegotouch-keyboard-key-sym-pressed-landscape">
		<g>
			<path style="fill:#333333;" d="M473.969,349H412c-5.5,0-10,4.5-10,10v19.635h81.969V359C483.969,353.5,479.469,349,473.969,349z"
				/>
			<linearGradient id="SVGID_17_" gradientUnits="userSpaceOnUse" x1="442.9844" y1="378.6348" x2="442.9844" y2="350">
				<stop  offset="0" style="stop-color:#2AAAE2"/>
				<stop  offset="1" style="stop-color:#1F749A"/>
			</linearGradient>
			<path style="fill:url(#SVGID_17_);" d="M473.969,350H412c-5.5,0-10,4.5-10,10v18.635h81.969V360
				C483.969,354.5,479.469,350,473.969,350z"/>
		</g>
		<g>
			<path style="fill:#333333;" d="M402,378.635v17.553c0,5.5,4.5,10,10,10h61.969c5.5,0,10-4.5,10-10v-17.553H402z"/>
			<linearGradient id="SVGID_18_" gradientUnits="userSpaceOnUse" x1="442.9844" y1="378.6348" x2="442.9844" y2="405.1875">
				<stop  offset="0" style="stop-color:#4D4D4D"/>
				<stop  offset="1" style="stop-color:#B3B3B3"/>
			</linearGradient>
			<path style="fill:url(#SVGID_18_);" d="M402,378.635v16.553c0,5.5,4.5,10,10,10h61.969c5.5,0,10-4.5,10-10v-16.553H402z"/>
		</g>
	</g>
	<g id="meegotouch-keyboard-key-ace-pressed-landscape">
		<g>
			<path style="fill:#333333;" d="M473.998,260h-61.996C406.5,260,402,264.406,402,269.793v19.227h82v-19.227
				C484,264.406,479.498,260,473.998,260z"/>
			<linearGradient id="SVGID_19_" gradientUnits="userSpaceOnUse" x1="443" y1="260.9785" x2="443" y2="289.0195">
				<stop  offset="0" style="stop-color:#4D4D4D"/>
				<stop  offset="1" style="stop-color:#B3B3B3"/>
			</linearGradient>
			<path style="fill:url(#SVGID_19_);" d="M473.998,260.979h-61.996c-5.502,0-10.002,4.407-10.002,9.793v18.248h82v-18.248
				C484,265.386,479.498,260.979,473.998,260.979z"/>
		</g>
		<g>
			<path style="fill:#333333;" d="M402,289.02v17.188c0,5.387,4.5,9.793,10.002,9.793h61.996c5.5,0,10.002-4.406,10.002-9.793
				V289.02H402z"/>
			<linearGradient id="SVGID_20_" gradientUnits="userSpaceOnUse" x1="443" y1="315.0215" x2="443" y2="289.0195">
				<stop  offset="0" style="stop-color:#2AAAE2"/>
				<stop  offset="1" style="stop-color:#1F749A"/>
			</linearGradient>
			<path style="fill:url(#SVGID_20_);" d="M402,289.02v16.209c0,5.386,4.5,9.793,10.002,9.793h61.996
				c5.5,0,10.002-4.407,10.002-9.793V289.02H402z"/>
		</g>
	</g>
	<g id="meegotouch-keyboard-key-sym-pressed-portrait">
		<g>
			<path style="fill:#333333;" d="M382,349h-60c-5.5,0-10,4.5-10,10v29h80v-29C392,353.5,387.5,349,382,349z"/>
			<linearGradient id="SVGID_21_" gradientUnits="userSpaceOnUse" x1="352" y1="388" x2="352" y2="350">
				<stop  offset="0" style="stop-color:#2AAAE2"/>
				<stop  offset="1" style="stop-color:#1F749A"/>
			</linearGradient>
			<path style="fill:url(#SVGID_21_);" d="M382,350h-60c-5.5,0-10,4.5-10,10v28h80v-28C392,354.5,387.5,350,382,350z"/>
		</g>
		<g>
			<path style="fill:#333333;" d="M312,388v31c0,5.5,4.5,10,10,10h60c5.5,0,10-4.5,10-10v-31H312z"/>
			<linearGradient id="SVGID_22_" gradientUnits="userSpaceOnUse" x1="352" y1="388" x2="352" y2="428">
				<stop  offset="0" style="stop-color:#4D4D4D"/>
				<stop  offset="1" style="stop-color:#B3B3B3"/>
			</linearGradient>
			<path style="fill:url(#SVGID_22_);" d="M312,388v30c0,5.5,4.5,10,10,10h60c5.5,0,10-4.5,10-10v-30H312z"/>
		</g>
	</g>
	<g id="meegotouch-keyboard-key-ace-pressed-portrait">
		<g>
			<path style="fill:#333333;" d="M382,260h-60c-5.5,0-10,4.5-10,10v29h80v-29C392,264.5,387.5,260,382,260z"/>
			<linearGradient id="SVGID_23_" gradientUnits="userSpaceOnUse" x1="352" y1="261" x2="352" y2="299">
				<stop  offset="0" style="stop-color:#4D4D4D"/>
				<stop  offset="1" style="stop-color:#B3B3B3"/>
			</linearGradient>
			<path style="fill:url(#SVGID_23_);" d="M382,261h-60c-5.5,0-10,4.5-10,10v28h80v-28C392,265.5,387.5,261,382,261z"/>
		</g>
		<g>
			<path style="fill:#333333;" d="M312,299v31c0,5.5,4.5,10,10,10h60c5.5,0,10-4.5,10-10v-31H312z"/>
			<linearGradient id="SVGID_24_" gradientUnits="userSpaceOnUse" x1="352" y1="339" x2="352" y2="299">
				<stop  offset="0" style="stop-color:#2AAAE2"/>
				<stop  offset="1" style="stop-color:#1F749A"/>
			</linearGradient>
			<path style="fill:url(#SVGID_24_);" d="M312,299v30c0,5.5,4.5,10,10,10h60c5.5,0,10-4.5,10-10v-30H312z"/>
		</g>
	</g>
	<g id="meegotouch-keyboard-key-pressed-selected-landscape">
		<g>
			<path style="fill:#333333;" d="M165,311.999c0-5.5,4.5-10,10-10h44c5.5,0,10,4.5,10,10v34c0,5.5-4.5,10-10,10h-44
				c-5.5,0-10-4.5-10-10V311.999z"/>
		</g>
		<g style="opacity:0.8;">
			<path style="fill:#FFFFFF;" d="M165,313.999c0-5.5,4.5-10,10-10h44c5.5,0,10,4.5,10,10v34c0,5.5-4.5,10-10,10h-44
				c-5.5,0-10-4.5-10-10V313.999z"/>
		</g>
		<g>
			<linearGradient id="SVGID_25_" gradientUnits="userSpaceOnUse" x1="196.9995" y1="356.999" x2="196.9995" y2="302.999">
				<stop  offset="0" style="stop-color:#2AAAE2"/>
				<stop  offset="1" style="stop-color:#1F749A"/>
			</linearGradient>
			<path style="fill:url(#SVGID_25_);" d="M229,346.999c0,5.5-4.5,10-10,10h-44c-5.5,0-10-4.5-10-10v-34c0-5.5,4.5-10,10-10h44
				c5.5,0,10,4.5,10,10V346.999z"/>
		</g>
	</g>
	<g id="meegotouch-keyboard-key-selected-landscape">
		<g>
			<path style="fill:#333333;" d="M229,274c0,5.5-4.5,10-10,10h-44c-5.5,0-10-4.5-10-10v-34c0-5.5,4.5-10,10-10h44
				c5.5,0,10,4.5,10,10V274z"/>
		</g>
		<g>
			<path style="fill:#CCCCCC;" d="M229,272c0,5.5-4.5,10-10,10h-44c-5.5,0-10-4.5-10-10v-34c0-5.5,4.5-10,10-10h44
				c5.5,0,10,4.5,10,10V272z"/>
		</g>
		<g>
			<linearGradient id="SVGID_26_" gradientUnits="userSpaceOnUse" x1="196.9995" y1="283" x2="196.9995" y2="229.0005">
				<stop  offset="0" style="stop-color:#2AAAE2"/>
				<stop  offset="1" style="stop-color:#83D5F7"/>
			</linearGradient>
			<path style="fill:url(#SVGID_26_);" d="M229,273c0,5.5-4.5,10-10,10h-44c-5.5,0-10-4.5-10-10v-34c0-5.5,4.5-10,10-10h44
				c5.5,0,10,4.5,10,10V273z"/>
		</g>
	</g>
	<g id="meegotouch-keyboard-key-pressed-landscape">
		<g>
			<path style="fill:#333333;" d="M165,164c0-5.5,4.5-10,10-10h44c5.5,0,10,4.5,10,10v34c0,5.5-4.5,10-10,10h-44
				c-5.5,0-10-4.5-10-10V164z"/>
		</g>
		<g>
			<path style="fill:#FFFFFF;" d="M165,166c0-5.5,4.5-10,10-10h44c5.5,0,10,4.5,10,10v34c0,5.5-4.5,10-10,10h-44
				c-5.5,0-10-4.5-10-10V166z"/>
		</g>
		<g>
			<linearGradient id="SVGID_27_" gradientUnits="userSpaceOnUse" x1="196.9995" y1="155" x2="196.9995" y2="209">
				<stop  offset="0" style="stop-color:#4D4D4D"/>
				<stop  offset="1" style="stop-color:#B3B3B3"/>
			</linearGradient>
			<path style="fill:url(#SVGID_27_);" d="M229,199c0,5.5-4.5,10-10,10h-44c-5.5,0-10-4.5-10-10v-34c0-5.5,4.5-10,10-10h44
				c5.5,0,10,4.5,10,10V199z"/>
		</g>
	</g>
	<g id="meegotouch-keyboard-key-landscape">
		<g>
			<path style="fill:#808080;" d="M229,126c0,5.5-4.5,10-10,10h-44c-5.5,0-10-4.5-10-10V92c0-5.5,4.5-10,10-10h44
				c5.5,0,10,4.5,10,10V126z"/>
		</g>
		<g>
			<path style="fill:#FFFFFF;" d="M229,124c0,5.5-4.5,10-10,10h-44c-5.5,0-10-4.5-10-10V90c0-5.5,4.5-10,10-10h44
				c5.5,0,10,4.5,10,10V124z"/>
		</g>
		<g>
			<linearGradient id="SVGID_28_" gradientUnits="userSpaceOnUse" x1="196.9995" y1="81" x2="196.9995" y2="135">
				<stop  offset="0" style="stop-color:#F2F2F2"/>
				<stop  offset="1" style="stop-color:#D2D3D3"/>
			</linearGradient>
			<path style="fill:url(#SVGID_28_);" d="M229,125c0,5.5-4.5,10-10,10h-44c-5.5,0-10-4.5-10-10V91c0-5.5,4.5-10,10-10h44
				c5.5,0,10,4.5,10,10V125z"/>
		</g>
	</g>
</g>
</svg>
